<svg width="297.07mm" height="131.9mm" version="1.1" viewBox="0 0 297.07 131.9" xmlns="http://www.w3.org/2000/svg" xmlns:osb="http://www.openswatchbook.org/uri/2009/osb">
   <style>
      * { position: relative; }
	  .all:hover * { fill: rgba(204, 204, 204, 0.2); stroke: rgba(204, 204, 204, 0.9); }
	  	  
	  #public:hover * { fill:#0f0; stroke:#000; opacity: 1.0 }
	  #public:hover > .accesstype { fill:#1f1; }
	  #protected_internal:hover * { fill:#00f; stroke:#000; opacity: 1.0 }
	  #protected_internal:hover > .accesstype * { fill:#00f; }
	  #internal:hover * { fill:#c0c; stroke:#000; opacity: 1.0 }
	  #internal:hover > .accesstype { fill:#d0d; }
	  #protected:hover * { fill:#cc0; stroke:#000; opacity: 1.0 }
	  #protected:hover > .accesstype { fill:#ff0; }
	  #privateprotected:hover * { fill:#d80; stroke:#000; opacity: 1.0 }
	  #privateprotected:hover > .accesstype * { fill:#fc0; }
	  #private:hover * { fill:#c03; stroke:#000; opacity: 1.0 }
	  #private:hover > .accesstype { fill:#f00; }
    </style>
	
  <g transform="translate(75.126 -11.277)" stroke-width=".3" style="line-height:1">
    <circle cx="-9.2427" cy="77.159" r="65.882" fill-opacity=".20442" opacity=".216"/>
    <circle cx="156.06" cy="77.292" r="65.882" fill-opacity=".20442" opacity=".216"/>
    <g class="all" stroke="#000" stroke-opacity=".19608" font-family="'Courier New'" font-size="6.35px" font-weight="bold" letter-spacing="0px" word-spacing="0px">
      <g id="public">
        <path d="m-37.933 40.442c-5.0625-0.05187-10.159-0.09272-15.145 0.78628-4.9858 0.879-9.9079 2.7407-13.707 6.0872-5.2097 4.5892-7.8367 11.621-8.1688 18.555s1.4287 13.816 3.841 20.326c4.5458 12.268 11.697 23.895 22.181 31.721 13.655 10.193 31.38 12.942 48.376 14.165 32.811 2.3625 65.78 0.23607 98.656 1.3698 24.011 0.82798 48.911 3.2626 71.328-5.3788 10.736-4.1384 20.752-11.014 26.727-20.847 6.5511-10.781 7.5978-24.735 2.6727-36.349-3.2794-7.7333-9.0062-14.31-15.853-19.177-6.8467-4.8663-14.783-8.0745-22.96-9.9978-16.354-3.8465-33.407-2.6362-50.188-1.8289-49.205 2.3672-98.5 1.0717-147.76 0.56697z" fill="#0f0" fill-opacity="0.35"/>
        <text class="accesstype" x="60.380955" y="120.32272" fill="#00c400" xml:space="preserve">public</text>
      </g>
      <g id="protected_internal">
        <path d="m-65.287 50.127c-4.4777 3.539-7.4615 9.0347-7.5697 14.741-0.06867 3.6216 0.97913 7.1971 2.5486 10.462 1.5694 3.2646 3.6511 6.253 5.7669 9.1931 5.3619 7.4506 11.051 14.745 17.928 20.825 6.8771 6.08 15.043 10.93 24.027 12.814 9.5194 1.9963 19.418 0.58935 28.915-1.5119 23.785-5.2627 46.44-14.8 70.14-20.433 8.596-2.043 17.321-3.5702 25.802-6.0473 8.4812-2.4771 16.803-5.9682 23.687-11.506 3.3785-2.7178 6.4711-6.0619 7.7485-10.205 0.98888-3.2076 0.80359-6.7404-0.38311-9.8801-1.1867-3.1398-3.3494-5.8814-6.0425-7.8848-3.3955-2.5258-7.5514-3.8659-11.736-4.4971-4.1845-0.63124-8.4369-0.5928-12.669-0.60557-23.999-0.07244-47.99-1.8369-71.979-1.1339-19.954 0.58472-39.94 2.8747-59.831 1.1812-6.2466-0.53184-12.489-1.4566-18.753-1.201s-12.682 1.8021-17.6 5.6895z" fill="#00f" fill-opacity="0.3"/>
        <text class="accesstype" x="41.404827" y="88.250366" fill="#00f" xml:space="preserve"><tspan x="41.404827" y="88.250366">protected</tspan><tspan x="41.404827" y="96.187866">internal</tspan></text>
      </g>
      <g id="internal">
        <path d="m-63.019 51.072c-2.2297 1.2814-4.2069 3.0216-5.6778 5.1311-1.471 2.1094-2.4261 4.5911-2.6478 7.1532-0.26922 3.1109 0.53907 6.2416 1.8527 9.0743 1.3137 2.8328 3.1194 5.4056 4.9508 7.9346 5.5978 7.7299 11.566 15.251 18.592 21.71 7.0394 6.4718 15.265 11.899 24.498 14.387 6.3598 1.7133 13.242 1.9665 19.466-0.18898 7.5624-2.619 13.479-8.466 19.23-14.032 6.7868-6.5697 13.719-12.989 20.458-19.608 2.5017-2.457 4.9934-4.9613 6.9529-7.8692s3.3755-6.2729 3.4887-9.7776c0.14862-4.604-2.0817-9.1952-5.7169-12.024-3.3459-2.604-7.6604-3.6982-11.895-3.9049-4.2348-0.20666-8.4602 0.40597-12.673 0.88109-18.074 2.0382-36.388 1.5558-54.429-0.75595-4.4682-0.57256-8.9431-1.2583-13.448-1.214-4.5045 0.04422-9.0948 0.8593-13.001 3.1039z" fill="#c0c" fill-opacity="0.4"/>
        <text class="accesstype" x="-24.28689" y="93.405655" fill="#dc5cdc" xml:space="preserve">internal</text>
      </g>
	  <g id="protected">
        <path d="m129.36 55.419c-1.7976-2.3709-4.4918-3.9398-7.3192-4.8663-2.8274-0.92644-5.8096-1.2618-8.77-1.5593-23.272-2.3389-46.713-2.6626-70.089-1.8899-25.347 0.83788-50.784 2.9591-76.013 0.37798-4.9245-0.50381-9.8508-1.1872-14.8-1.0866-4.9492 0.10064-9.9881 1.0315-14.254 3.5434-4.6415 2.7333-8.1856 7.3861-9.2706 12.662-0.61538 2.9926-0.44339 6.1616 0.62036 9.0257 1.0637 2.8641 3.0339 5.4055 5.6162 7.0383 2.4072 1.5221 5.2583 2.2244 8.0972 2.4536s5.6923 0.0087 8.5338-0.18572c31.624-2.1639 63.365-1.0981 95.061-0.75595 20.98 0.22647 41.97 0.13518 62.933-0.75595 2.8409-0.12077 5.6947-0.25786 8.4806-0.82699 2.7859-0.56914 5.5225-1.592 7.7724-3.3307 2.7947-2.1598 4.7156-5.372 5.4806-8.8201 0.41797-1.8839 0.50396-3.8486 0.17266-5.7496-0.3313-1.901-1.0857-3.7363-2.2515-5.274z" fill="#ff0" fill-opacity=".4"/>
        <text class="accesstype" x="58.678875" y="69.593147" fill="#ffff00" xml:space="preserve">protected</text>
      </g>
      <g id="privateprotected">
        <path d="m-63.397 52.773c-2.092 1.3554-3.9064 3.1727-5.1129 5.354-1.6114 2.9134-2.0738 6.4468-1.2459 9.6716 0.82791 3.2247 2.9418 6.1041 5.7816 7.842 2.1825 1.3357 4.7257 1.9926 7.2714 2.2517 2.5457 0.25904 5.1129 0.13724 7.6689 0.01618 10.072-0.47706 20.146-0.93859 30.228-1.1339 7.5596-0.14648 15.125-0.14318 22.679 0.18899 8.432 0.37078 16.874 1.1512 25.298 0.62426 2.3421-0.1465 4.6889-0.39598 6.9575-0.99624s4.466-1.5636 6.2982-3.0298c1.8109-1.4491 3.2387-3.3859 4.0258-5.5675 0.78717-2.1816 0.9227-4.6035 0.32089-6.8434-0.47916-1.7834-1.4142-3.4321-2.6352-4.8174s-2.7235-2.5108-4.3573-3.3714c-3.2098-1.6908-6.8802-2.3501-10.507-2.4461-3.6266-0.09605-7.2429 0.34704-10.849 0.74523-8.3287 0.9197-16.688 1.604-25.065 1.819-8.8026 0.2259-17.642-0.06945-26.34-1.441-5.1392-0.81041-10.239-1.997-15.436-2.2381-5.1971-0.24106-10.614 0.543-14.981 3.372z" fill="#f80" fill-opacity=".5"/>
        <text class="accesstype" x="-22.543007" y="68.081017" fill="#ffc800" xml:space="preserve"><tspan x="-22.543007" y="68.081017">private</tspan><tspan x="-22.543007" y="74.431015">protected</tspan></text>
      </g>
	  <g id="private">
        <path d="m-65.108 55.797c-2.7851 2.6583-4.2392 6.6808-3.6805 10.49 0.27938 1.9047 1.04 3.7388 2.2034 5.2726 1.1635 1.5337 2.7285 2.7625 4.5009 3.5141 1.9062 0.80825 4.0051 1.058 6.0753 1.0905 2.0702 0.03257 4.1385-0.14306 6.2089-0.1456 2.2344-0.0027 4.4666 0.19608 6.7005 0.15217 2.2339-0.04391 4.5031-0.34281 6.5286-1.2861 1.7611-0.82017 3.2942-2.1195 4.4042-3.7139 1.11-1.5944 1.7957-3.4792 1.9845-5.4128 0.18879-1.9336-0.11816-3.9117-0.87025-5.7029-0.7521-1.7913-1.9466-3.3929-3.4395-4.6362-1.8246-1.5195-4.0607-2.4875-6.3638-3.0654-2.3031-0.5779-4.683-0.78176-7.0543-0.90337-3.039-0.15584-6.1107-0.17764-9.0957 0.41329-2.985 0.59092-5.901 1.8324-8.1022 3.9334z" fill="#c03"/>
        <text class="accesstype" x="-62.028481" y="73.951447" fill="#ff0000" xml:space="preserve">private</text>
      </g>
    </g>
    <g fill="#000000" font-family="sans-serif" letter-spacing="0px" word-spacing="0px">
      <text x="-40.914192" y="29.982599" font-size="7.0556px" xml:space="preserve"><tspan x="-40.914192" y="29.982599" font-size="7.0556px">Same Assembly</tspan></text>
      <text x="121.60928" y="29.985607" font-size="7.0556px" xml:space="preserve"><tspan x="121.60928" y="29.985607" font-size="7.0556px" >Different Assembly</tspan></text>
      <g font-size="5.6444px"  style="line-height:1.25">
        <text font-family="sans-serif" letter-spacing="0px" word-spacing="0px" font-weight="normal" x="-64.720169" y="60.017071" xml:space="preserve"><tspan x="-64.720169" y="60.017071">Containing</tspan><tspan x="-64.720169" y="67.072624">Class</tspan></text>
        <text x="20.235458" y="60.395046" xml:space="preserve"><tspan x="20.235458" y="60.395046">Derived</tspan><tspan x="20.235458" y="67.4506">Class</tspan></text>
        <text x="-22.272478" y="107.41549" xml:space="preserve"><tspan x="-22.272478" y="107.41549">Any other</tspan><tspan x="-22.272478" y="114.47105">Code</tspan></text>
        <text x="145.98224" y="107.20177" xml:space="preserve"><tspan x="145.98224" y="107.20177">Any other</tspan><tspan x="145.98224" y="114.25732">Code</tspan></text>
        <text x="105.71165" y="60.206059" xml:space="preserve"><tspan x="105.71165" y="60.206059">Derived</tspan><tspan x="105.71165" y="67.261612">Class</tspan></text>
      </g>
    </g>
  </g>
</svg>
